<?xml version="1.0" standalone="no"?>
<!DOCTYPE svg PUBLIC "-//W3C//DTD SVG 20010904//EN"
 "http://www.w3.org/TR/2001/REC-SVG-20010904/DTD/svg10.dtd">
<svg version="1.0" xmlns="http://www.w3.org/2000/svg"
 width="700.000000pt" height="700.000000pt" viewBox="0 0 700.000000 700.000000"
 preserveAspectRatio="xMidYMid meet">
<metadata>
Created by potrace 1.11, written by Peter Selinger 2001-2013
</metadata>
<g transform="translate(0.000000,700.000000) scale(0.100000,-0.100000)"
fill="#000000" stroke="none">
<path d="M3270 6989 c-604 -38 -1209 -243 -1713 -581 -1184 -794 -1766 -2213
-1482 -3613 276 -1361 1359 -2444 2720 -2720 754 -153 1526 -59 2211 270 1455
697 2240 2277 1919 3860 -276 1361 -1359 2444 -2720 2720 -314 64 -614 84
-935 64z m515 -1323 c664 -102 1238 -566 1461 -1183 80 -221 108 -387 109
-638 0 -268 -38 -492 -129 -752 -195 -556 -623 -1128 -1216 -1625 -160 -134
-485 -368 -510 -368 -7 0 -49 26 -94 57 -488 341 -913 750 -1224 1179 -364
502 -561 1078 -539 1578 23 515 233 961 613 1301 309 275 668 426 1119 469 71
7 317 -4 410 -18z"/>
<path d="M3331 4795 c-212 -48 -387 -153 -511 -308 -58 -72 -142 -236 -165
-322 -26 -94 -31 -294 -11 -396 32 -156 109 -306 218 -424 121 -130 289 -226
460 -261 93 -19 263 -19 356 0 338 70 609 345 678 685 20 102 15 302 -11 396
-23 86 -107 250 -165 322 -106 132 -266 238 -435 288 -113 34 -311 43 -414 20z"/>
</g>
</svg>
